<svg width="12" height="12" viewBox="0 0 12 12" fill="none" xmlns="http://www.w3.org/2000/svg">
<rect width="12" height="12" fill="#E5E5E5"/>
<rect width="1440" height="4717" transform="translate(-713 -820)" fill="white"/>
<rect x="-528.75" y="-323.75" width="1105.5" height="369.5" rx="14.75" stroke="#8E8E8E" stroke-width="0.5"/>
<path d="M-29.1123 11H-30.2197V3.87695C-30.2197 3.28451 -30.2015 2.72396 -30.165 2.19531C-30.2607 2.29102 -30.3678 2.39128 -30.4863 2.49609C-30.6048 2.60091 -31.1471 3.04525 -32.1133 3.8291L-32.7148 3.0498L-30.0693 1.00586H-29.1123V11ZM-18.7354 11H-25.3047V10.0225L-22.6729 7.37695C-21.8708 6.56576 -21.3421 5.98698 -21.0869 5.64062C-20.8317 5.29427 -20.6403 4.95703 -20.5127 4.62891C-20.3851 4.30078 -20.3213 3.94759 -20.3213 3.56934C-20.3213 3.03613 -20.4831 2.61458 -20.8066 2.30469C-21.1302 1.99023 -21.5791 1.83301 -22.1533 1.83301C-22.568 1.83301 -22.9622 1.90137 -23.3359 2.03809C-23.7051 2.1748 -24.1175 2.42318 -24.5732 2.7832L-25.1748 2.01074C-24.2542 1.24512 -23.2516 0.862305 -22.167 0.862305C-21.2282 0.862305 -20.4922 1.10384 -19.959 1.58691C-19.4258 2.06543 -19.1592 2.71029 -19.1592 3.52148C-19.1592 4.15495 -19.3369 4.78158 -19.6924 5.40137C-20.0479 6.02116 -20.7132 6.80501 -21.6885 7.75293L-23.876 9.89258V9.94727H-18.7354V11ZM-10.6689 5.98926C-10.6689 7.71647 -10.9424 9.00618 -11.4893 9.8584C-12.0316 10.7106 -12.8633 11.1367 -13.9844 11.1367C-15.0599 11.1367 -15.8779 10.7015 -16.4385 9.83105C-16.999 8.95605 -17.2793 7.67546 -17.2793 5.98926C-17.2793 4.24837 -17.0081 2.95638 -16.4658 2.11328C-15.9235 1.27018 -15.0964 0.848633 -13.9844 0.848633C-12.8997 0.848633 -12.0771 1.28841 -11.5166 2.16797C-10.9515 3.04753 -10.6689 4.32129 -10.6689 5.98926ZM-16.1309 5.98926C-16.1309 7.44303 -15.96 8.5026 -15.6182 9.16797C-15.2764 9.82878 -14.7318 10.1592 -13.9844 10.1592C-13.2279 10.1592 -12.681 9.82422 -12.3438 9.1543C-12.002 8.47982 -11.8311 7.4248 -11.8311 5.98926C-11.8311 4.55371 -12.002 3.50326 -12.3438 2.83789C-12.681 2.16797 -13.2279 1.83301 -13.9844 1.83301C-14.7318 1.83301 -15.2764 2.16341 -15.6182 2.82422C-15.96 3.48047 -16.1309 4.53548 -16.1309 5.98926ZM-2.65723 5.98926C-2.65723 7.71647 -2.93066 9.00618 -3.47754 9.8584C-4.01986 10.7106 -4.85156 11.1367 -5.97266 11.1367C-7.04818 11.1367 -7.86621 10.7015 -8.42676 9.83105C-8.9873 8.95605 -9.26758 7.67546 -9.26758 5.98926C-9.26758 4.24837 -8.99642 2.95638 -8.4541 2.11328C-7.91178 1.27018 -7.08464 0.848633 -5.97266 0.848633C-4.88802 0.848633 -4.06543 1.28841 -3.50488 2.16797C-2.93978 3.04753 -2.65723 4.32129 -2.65723 5.98926ZM-8.11914 5.98926C-8.11914 7.44303 -7.94824 8.5026 -7.60645 9.16797C-7.26465 9.82878 -6.72005 10.1592 -5.97266 10.1592C-5.21615 10.1592 -4.66927 9.82422 -4.33203 9.1543C-3.99023 8.47982 -3.81934 7.4248 -3.81934 5.98926C-3.81934 4.55371 -3.99023 3.50326 -4.33203 2.83789C-4.66927 2.16797 -5.21615 1.83301 -5.97266 1.83301C-6.72005 1.83301 -7.26465 2.16341 -7.60645 2.82422C-7.94824 3.48047 -8.11914 4.53548 -8.11914 5.98926ZM18.5684 3.50781V6.64551H22.7656V3.50781H23.9004V11H22.7656V7.62305H18.5684V11H17.4336V3.50781H18.5684ZM30.9141 11L30.6885 9.93359H30.6338C30.2601 10.403 29.8864 10.722 29.5127 10.8906C29.1436 11.0547 28.681 11.1367 28.125 11.1367C27.3822 11.1367 26.7988 10.9453 26.375 10.5625C25.9557 10.1797 25.7461 9.63509 25.7461 8.92871C25.7461 7.41569 26.9561 6.62272 29.376 6.5498L30.6475 6.50879V6.04395C30.6475 5.45605 30.5199 5.02311 30.2646 4.74512C30.014 4.46257 29.6107 4.32129 29.0547 4.32129C28.4303 4.32129 27.724 4.5127 26.9355 4.89551L26.5869 4.02734C26.9561 3.82682 27.3594 3.6696 27.7969 3.55566C28.2389 3.44173 28.681 3.38477 29.123 3.38477C30.0163 3.38477 30.6771 3.58301 31.1055 3.97949C31.5384 4.37598 31.7549 5.01172 31.7549 5.88672V11H30.9141ZM28.3506 10.2002C29.057 10.2002 29.6107 10.0065 30.0117 9.61914C30.4173 9.23177 30.6201 8.68945 30.6201 7.99219V7.31543L29.4854 7.36328C28.583 7.39518 27.9313 7.53646 27.5303 7.78711C27.1338 8.0332 26.9355 8.41829 26.9355 8.94238C26.9355 9.35254 27.0586 9.66471 27.3047 9.87891C27.5553 10.0931 27.904 10.2002 28.3506 10.2002ZM38.8711 11H37.7363V3.50781H44.0254V11H42.877V4.49219H38.8711V11ZM49.918 11.1367C49.4303 11.1367 48.9837 11.0479 48.5781 10.8701C48.1771 10.6878 47.8398 10.4098 47.5664 10.0361H47.4844C47.5391 10.4736 47.5664 10.8883 47.5664 11.2803V14.3633H46.4316V3.50781H47.3545L47.5117 4.5332H47.5664C47.8581 4.12305 48.1976 3.82682 48.585 3.64453C48.9723 3.46224 49.4167 3.37109 49.918 3.37109C50.9115 3.37109 51.6771 3.71061 52.2148 4.38965C52.7572 5.06868 53.0283 6.02116 53.0283 7.24707C53.0283 8.47754 52.7526 9.43457 52.2012 10.1182C51.6543 10.7972 50.8932 11.1367 49.918 11.1367ZM49.7539 4.33496C48.9883 4.33496 48.4346 4.54688 48.0928 4.9707C47.751 5.39453 47.5755 6.06901 47.5664 6.99414V7.24707C47.5664 8.2998 47.7419 9.05404 48.0928 9.50977C48.4437 9.96094 49.0065 10.1865 49.7812 10.1865C50.4284 10.1865 50.9342 9.92448 51.2988 9.40039C51.668 8.8763 51.8525 8.15397 51.8525 7.2334C51.8525 6.29915 51.668 5.58366 51.2988 5.08691C50.9342 4.58561 50.4193 4.33496 49.7539 4.33496ZM56.084 3.50781V8.25879L56.0361 9.50293L56.0156 9.89258L60.0693 3.50781H61.4844V11H60.4248V6.41992L60.4453 5.51758L60.4795 4.62891L56.4326 11H55.0176V3.50781H56.084ZM64.8887 3.50781V6.24219C64.8887 7.11719 65.3877 7.55469 66.3857 7.55469C66.8005 7.55469 67.1969 7.49089 67.5752 7.36328C67.9535 7.23568 68.3818 7.01921 68.8604 6.71387V3.50781H69.9951V11H68.8604V7.60938C68.3818 7.9375 67.9375 8.16992 67.5273 8.30664C67.1217 8.4388 66.6615 8.50488 66.1465 8.50488C65.3991 8.50488 64.8135 8.30892 64.3896 7.91699C63.9658 7.52507 63.7539 6.99414 63.7539 6.32422V3.50781H64.8887ZM77.0156 11L76.79 9.93359H76.7354C76.3617 10.403 75.988 10.722 75.6143 10.8906C75.2451 11.0547 74.7826 11.1367 74.2266 11.1367C73.4837 11.1367 72.9004 10.9453 72.4766 10.5625C72.0573 10.1797 71.8477 9.63509 71.8477 8.92871C71.8477 7.41569 73.0576 6.62272 75.4775 6.5498L76.749 6.50879V6.04395C76.749 5.45605 76.6214 5.02311 76.3662 4.74512C76.1156 4.46257 75.7122 4.32129 75.1562 4.32129C74.5319 4.32129 73.8255 4.5127 73.0371 4.89551L72.6885 4.02734C73.0576 3.82682 73.4609 3.6696 73.8984 3.55566C74.3405 3.44173 74.7826 3.38477 75.2246 3.38477C76.1178 3.38477 76.7786 3.58301 77.207 3.97949C77.64 4.37598 77.8564 5.01172 77.8564 5.88672V11H77.0156ZM74.4521 10.2002C75.1585 10.2002 75.7122 10.0065 76.1133 9.61914C76.5189 9.23177 76.7217 8.68945 76.7217 7.99219V7.31543L75.5869 7.36328C74.6846 7.39518 74.0329 7.53646 73.6318 7.78711C73.2354 8.0332 73.0371 8.41829 73.0371 8.94238C73.0371 9.35254 73.1602 9.66471 73.4062 9.87891C73.6569 10.0931 74.0055 10.2002 74.4521 10.2002ZM85.7861 11H84.6377V4.47852H82.3887C82.2656 6.10091 82.0947 7.38835 81.876 8.34082C81.6572 9.29329 81.3724 9.99056 81.0215 10.4326C80.6751 10.8747 80.2331 11.0957 79.6953 11.0957C79.4492 11.0957 79.2533 11.0684 79.1074 11.0137V10.1729C79.2077 10.2002 79.3216 10.2139 79.4492 10.2139C79.9733 10.2139 80.3903 9.66016 80.7002 8.55273C81.0101 7.44531 81.2448 5.76367 81.4043 3.50781H85.7861V11ZM91.3643 11.1367C90.2568 11.1367 89.3818 10.7995 88.7393 10.125C88.1012 9.45052 87.7822 8.514 87.7822 7.31543C87.7822 6.10775 88.0785 5.14844 88.6709 4.4375C89.2679 3.72656 90.0677 3.37109 91.0703 3.37109C92.0091 3.37109 92.752 3.68099 93.2988 4.30078C93.8457 4.91602 94.1191 5.72949 94.1191 6.74121V7.45898H88.958C88.9808 8.33854 89.2018 9.00618 89.6211 9.46191C90.0449 9.91764 90.6396 10.1455 91.4053 10.1455C92.2119 10.1455 93.0094 9.97689 93.7979 9.63965V10.6514C93.3968 10.8245 93.0163 10.9476 92.6562 11.0205C92.3008 11.098 91.8701 11.1367 91.3643 11.1367ZM91.0566 4.32129C90.4551 4.32129 89.9743 4.51725 89.6143 4.90918C89.2588 5.30111 89.0492 5.84342 88.9854 6.53613H92.9023C92.9023 5.82064 92.7428 5.27376 92.4238 4.89551C92.1048 4.5127 91.6491 4.32129 91.0566 4.32129Z" fill="black"/>
<g clip-path="url(#clip0_0_1)">
<path d="M2.80416 11.9231C2.7529 11.8721 2.72743 11.8069 2.72743 11.7273V10.4407V10.0907H2.37743H0.818304C0.738677 10.0907 0.67347 10.0654 0.622236 10.0141C0.570978 9.96288 0.545502 9.89765 0.545502 9.81803V8.72707C0.545502 8.64778 0.571142 8.58226 0.622236 8.53131C0.67347 8.48003 0.738701 8.45439 0.818304 8.45439L2.80416 11.9231ZM2.80416 11.9231C2.85528 11.9744 2.92063 12 3.00023 12M2.80416 11.9231L3.00023 12M3.00023 12H4.42345M3.00023 12H4.42345M4.42345 12C4.49732 12 4.56123 11.9744 4.61522 11.9231M4.42345 12L4.61522 11.9231M4.61522 11.9231C4.6692 11.8721 4.69612 11.8069 4.69612 11.7273M4.61522 11.9231L4.69612 11.7273M4.69612 11.7273V10.4407V11.7273ZM3.07743 10.0907V9.74074H2.72743H0.895502V8.80439H2.72743H3.07743V8.45439V7.44866V7.09866H2.72743H0.895502V5.98359H2.72729H3.07729V5.63359V0.35H7.5937C8.65271 0.35 9.48883 0.670499 10.1333 1.29158C10.7766 1.9123 11.1046 2.71282 11.1046 3.72434C11.1046 4.73667 10.7766 5.53706 10.1335 6.15698L10.1334 6.15706C9.48885 6.77876 8.65296 7.09869 7.5937 7.09869H4.69597H4.34597V7.44869V8.45441V8.80441H4.69597H8.92286V9.74074H4.69612H4.34612V10.0907V11.65H3.07743V10.0907ZM4.69597 1.46552H4.34597V1.81552V5.63375V5.98375H4.69597H7.42325C8.09801 5.98375 8.676 5.78408 9.12205 5.35849C9.56892 4.93266 9.78456 4.37637 9.78456 3.72448C9.78456 3.07278 9.56886 2.51677 9.12221 2.09063L9.12213 2.09056C8.67609 1.66525 8.09812 1.46552 7.42325 1.46552H4.69597Z" fill="black" stroke="white" stroke-width="0.7"/>
</g>
<defs>
<clipPath id="clip0_0_1">
<rect width="12" height="12" fill="white"/>
</clipPath>
</defs>
</svg>
